<svg xmlns="http://www.w3.org/2000/svg" xmlns:xlink="http://www.w3.org/1999/xlink" version="1.1" width="37.924" height="30.1716" viewBox="0 0 37.924 30.1716">
<g id="layer_1" data-name="Layer 1">
<path transform="matrix(1,0,0,-1,1,29.1716)" d="M11.5302 14.4643C11.4197 15.1795 11.4381 17.6411 11.5481 18.377 12.4024 24.0951 19.9086 25.9515 23.182 21.1484 24.5305 19.1696 24.503 17.1315 24.3561 14.364 22.8214 13.9748 20.7094 13.3943 19.0902 13.2463 18.7804 11.0974 18.0581 11.804 17.5414 9.2489 17.348 9.5598 16.9676 12.1686 15.3947 11.0563 15.0503 10.8128 15.0911 10.6254 14.9842 10.3192L14.8785 10.0585C14.5409 10.2611 14.2254 10.5111 14.6066 10.9106L15.5443 11.6053C15.9457 12.138 15.3666 12.0317 16.1453 12.5053 16.4438 12.6867 16.9308 12.89 17.2199 13.0671 15.1557 12.9671 15.4789 11.3496 14.4298 11.1249 14.2279 12.2556 15.0772 12.8863 15.8159 13.3095 15.7918 13.326 15.7524 13.3767 15.7397 13.3532L15.4029 13.4915C14.523 13.7418 12.6785 13.9564 11.5302 14.4643ZM10.7073 14.6886C9.019 15.0318 6.2711 16.3789 4.9564 17.1317 2.0013 18.824 1.0222 20.2808 .3178 20.7028 .6744 18.4632 2.1801 16.3534 3.3446 15.4046 4.1074 14.783 4.7778 14.2464 5.8082 13.7112 6.2838 13.4643 8.3786 12.6213 8.6134 12.4174L2.8247 13.587C2.9889 13.2174 3.1209 13.1068 3.4929 12.7831 3.75 12.5595 4.0105 12.3605 4.3237 12.111 5.8496 10.8955 7.5864 10.2115 9.5219 9.8016 10.0743 9.6846 10.3878 9.7367 10.7498 9.5199L8.6627 8.9563C9.6018 8.1865 12.0067 8.2162 13.3761 8.1935 12.8863 7.8534 12.4872 7.8043 12.1606 7.5807 11.9775 7.4551 12.06 7.5203 11.9418 7.3967L15.0851 7.2564C14.9374 6.8774 14.7325 6.988 14.4884 6.5883L15.9406 6.586 15.7819 5.9397 16.3338 6.0412C16.3242 5.1548 16.2071 4.57 15.8131 3.9438 15.2359 3.0271 14.7722 2.8114 14.6293 2.3562L16.1116 2.5994 16.1323 .8765C16.7122 1.031 17.1907 1.5225 17.3548 2.0443 17.4903 1.3501 17.4963 .6559 17.9969 .3013 18.2934 .5428 18.4802 1.4111 18.5632 1.9213 18.5845 1.8981 18.6129 1.8913 18.6222 1.8476 18.6313 1.8045 18.6673 1.7909 18.6797 1.7742 18.7441 1.6883 18.7699 1.6503 18.8365 1.5588 19.203 1.0534 19.2705 .9746 19.806 .8756L19.8456 2.5931 21.2202 2.3723C20.7255 3.5674 19.5131 3.9535 19.6106 5.9179L20.1518 6.0335 19.9409 6.5818 21.3962 6.5962C21.1825 6.9415 21.369 6.6515 21.1623 6.8828L21.0376 7.014C20.8159 7.2575 21.0266 6.9854 20.8502 7.2252 21.6275 7.306 23.567 7.2655 23.8839 7.566 23.4468 7.7437 22.9005 7.9098 22.5862 8.2057 23.6673 8.1918 25.9727 8.2695 27.0247 8.7885 27.229 8.8894 27.1689 8.8634 27.2429 8.9209L25.1541 9.5374C25.7737 9.8402 30.2185 10.0171 33.209 13.6349 32.2157 13.5643 29.6439 12.5977 27.707 12.5289 28.0956 12.7675 28.5987 12.9294 29.031 13.1335 30.405 13.7815 31.6029 14.5054 32.6551 15.5117 33.9942 16.7922 35.2726 18.5655 35.5893 20.5911L33.3539 18.7404C31.2171 17.0507 27.8294 15.1795 25.1164 14.6217 25.1201 17.6012 25.2649 19.679 23.6818 21.7675 22.5703 23.2333 20.7145 24.6093 17.9977 24.6291 15.2181 24.6492 13.3761 23.2843 12.2315 21.8469 10.4556 19.6166 10.8309 17.8591 10.7073 14.6886Z" fill="#0c1139" fill-rule="evenodd"/>
<path transform="matrix(1,0,0,-1,1,29.1716)" stroke-width=".4799" stroke-linecap="butt" stroke-miterlimit="22.925585" stroke-linejoin="miter" fill="none" stroke="#0c1139" d="M11.5302 14.4643C11.4197 15.1795 11.4381 17.6411 11.5481 18.377 12.4024 24.0951 19.9086 25.9515 23.182 21.1484 24.5305 19.1696 24.503 17.1315 24.3561 14.364 22.8214 13.9748 20.7094 13.3943 19.0902 13.2463 18.7804 11.0974 18.0581 11.804 17.5414 9.2489 17.348 9.5598 16.9676 12.1686 15.3947 11.0563 15.0503 10.8128 15.0911 10.6254 14.9842 10.3192L14.8785 10.0585C14.5409 10.2611 14.2254 10.5111 14.6066 10.9106L15.5443 11.6053C15.9457 12.138 15.3666 12.0317 16.1453 12.5053 16.4438 12.6867 16.9308 12.89 17.2199 13.0671 15.1557 12.9671 15.4789 11.3496 14.4298 11.1249 14.2279 12.2556 15.0772 12.8863 15.8159 13.3095 15.7918 13.326 15.7524 13.3767 15.7397 13.3532L15.4029 13.4915C14.523 13.7418 12.6785 13.9564 11.5302 14.4643ZM10.7073 14.6886C9.019 15.0318 6.2711 16.3789 4.9564 17.1317 2.0013 18.824 1.0222 20.2808 .3178 20.7028 .6744 18.4632 2.1801 16.3534 3.3446 15.4046 4.1074 14.783 4.7778 14.2464 5.8082 13.7112 6.2838 13.4643 8.3786 12.6213 8.6134 12.4174L2.8247 13.587C2.9889 13.2174 3.1209 13.1068 3.4929 12.7831 3.75 12.5595 4.0105 12.3605 4.3237 12.111 5.8496 10.8955 7.5864 10.2115 9.5219 9.8016 10.0743 9.6846 10.3878 9.7367 10.7498 9.5199L8.6627 8.9563C9.6018 8.1865 12.0067 8.2162 13.3761 8.1935 12.8863 7.8534 12.4872 7.8043 12.1606 7.5807 11.9775 7.4551 12.06 7.5203 11.9418 7.3967L15.0851 7.2564C14.9374 6.8774 14.7325 6.988 14.4884 6.5883L15.9406 6.586 15.7819 5.9397 16.3338 6.0412C16.3242 5.1548 16.2071 4.57 15.8131 3.9438 15.2359 3.0271 14.7722 2.8114 14.6293 2.3562L16.1116 2.5994 16.1323 .8765C16.7122 1.031 17.1907 1.5225 17.3548 2.0443 17.4903 1.3501 17.4963 .6559 17.9969 .3013 18.2934 .5428 18.4802 1.4111 18.5632 1.9213 18.5845 1.8981 18.6129 1.8913 18.6222 1.8476 18.6313 1.8045 18.6673 1.7909 18.6797 1.7742 18.7441 1.6883 18.7699 1.6503 18.8365 1.5588 19.203 1.0534 19.2705 .9746 19.806 .8756L19.8456 2.5931 21.2202 2.3723C20.7255 3.5674 19.5131 3.9535 19.6106 5.9179L20.1518 6.0335 19.9409 6.5818 21.3962 6.5962C21.1825 6.9415 21.369 6.6515 21.1623 6.8828L21.0376 7.014C20.8159 7.2575 21.0266 6.9854 20.8502 7.2252 21.6275 7.306 23.567 7.2655 23.8839 7.566 23.4468 7.7437 22.9005 7.9098 22.5862 8.2057 23.6673 8.1918 25.9727 8.2695 27.0247 8.7885 27.229 8.8894 27.1689 8.8634 27.2429 8.9209L25.1541 9.5374C25.7737 9.8402 30.2185 10.0171 33.209 13.6349 32.2157 13.5643 29.6439 12.5977 27.707 12.5289 28.0956 12.7675 28.5987 12.9294 29.031 13.1335 30.405 13.7815 31.6029 14.5054 32.6551 15.5117 33.9942 16.7922 35.2726 18.5655 35.5893 20.5911L33.3539 18.7404C31.2171 17.0507 27.8294 15.1795 25.1164 14.6217 25.1201 17.6012 25.2649 19.679 23.6818 21.7675 22.5703 23.2333 20.7145 24.6093 17.9977 24.6291 15.2181 24.6492 13.3761 23.2843 12.2315 21.8469 10.4556 19.6166 10.8309 17.8591 10.7073 14.6886Z"/>
<path transform="matrix(1,0,0,-1,1,29.1716)" d="M15.302 16.7825C15.2756 18.5077 16.2014 19.8088 17.888 19.8442 19.2025 19.872 20.3383 18.8464 20.5268 17.5487L20.6524 16.962C20.6612 16.9359 20.6739 16.8968 20.6912 16.8673 20.8862 17.9949 20.8709 18.9332 20.2042 19.6807 18.1366 21.998 14.802 20.3791 15.0327 17.57 15.0684 17.136 15.0996 17.0512 15.302 16.7825" fill="#142532" fill-rule="evenodd"/>
<path transform="matrix(1,0,0,-1,1,29.1716)" d="M20.6583 15.4174 20.668 14.5219C21.4889 14.9108 22.062 16.4265 21.9112 17.797 21.7865 18.9312 20.859 20.2161 20.092 20.4508 20.5149 20.1606 21.1181 19.1795 21.2454 18.3297 21.4855 16.7267 20.6467 16.2876 20.6583 15.4174" fill="#f28a00" fill-rule="evenodd"/>
<path transform="matrix(1,0,0,-1,1,29.1716)" d="M15.1506 14.4805C15.4052 16.2096 14.701 16.1379 14.5772 17.4818 14.4516 18.8439 15.0792 19.4771 15.5327 20.2995 14.1075 19.6509 12.9084 16.6226 15.1506 14.4805" fill="#f28a00" fill-rule="evenodd"/>
<path transform="matrix(1,0,0,-1,1,29.1716)" d="M7.0106 19.3399 8.0836 19.2609 8.0768 19.1843C7.8684 19.1747 7.7006 19.1418 7.5728 19.0862 7.4449 19.0307 7.34 18.9456 7.2578 18.8311 7.1751 18.7172 7.128 18.5964 7.1167 18.4686 7.1036 18.3237 7.1416 18.2013 7.23 18.0998 7.3185 17.998 7.4251 17.9422 7.5484 17.9331 7.6431 17.9263 7.7323 17.9498 7.816 18.0037 7.9373 18.0816 8.1091 18.2747 8.3285 18.5842 8.5076 18.8368 8.6437 19.008 8.735 19.0984 8.8274 19.1889 8.9311 19.256 9.0496 19.2994 9.1675 19.3431 9.2877 19.3606 9.4119 19.3516 9.6469 19.3343 9.8416 19.2365 9.9972 19.0585 10.1526 18.8799 10.2186 18.6599 10.1957 18.3997 10.1883 18.3172 10.1741 18.2412 10.1537 18.1698 10.1421 18.1273 10.1061 18.0405 10.0454 17.9084 9.985 17.7775 9.9533 17.6933 9.9499 17.657 9.9465 17.6224 9.9561 17.5938 9.9768 17.5723 9.9986 17.5507 10.0449 17.5323 10.1166 17.517L10.1098 17.4404 9.0459 17.519 9.053 17.5955C9.2786 17.6153 9.4501 17.6513 9.5658 17.7041 9.6823 17.7571 9.7829 17.8438 9.8666 17.964 9.951 18.0842 10.0001 18.2191 10.0134 18.3688 10.0287 18.542 9.9904 18.6834 9.8986 18.7909 9.8062 18.8991 9.6911 18.9581 9.5539 18.9683 9.4774 18.974 9.398 18.9604 9.3166 18.9286 9.2353 18.896 9.157 18.8425 9.0822 18.7673 9.0315 18.7166 8.9209 18.5757 8.7511 18.3447 8.5816 18.1137 8.4478 17.9498 8.3506 17.8543 8.2528 17.7585 8.1476 17.6876 8.0365 17.6428 7.9248 17.5978 7.8046 17.5802 7.6765 17.5895 7.4543 17.606 7.2689 17.6981 7.122 17.8654 6.9746 18.0326 6.9123 18.237 6.9335 18.4771 6.9469 18.6276 7.0016 18.7832 7.0974 18.9456 7.1425 19.0208 7.166 19.074 7.1688 19.1061 7.1719 19.1424 7.1629 19.1727 7.1416 19.1974 7.1195 19.2217 7.0741 19.2436 7.0036 19.2631ZM8.786 23.6112 9.7234 23.1304 9.682 23.0635C9.4881 23.1341 9.3206 23.1684 9.1794 23.1667 9.0377 23.1647 8.9031 23.1276 8.7752 23.0553 8.6479 22.9833 8.5493 22.8915 8.4796 22.7801 8.401 22.6534 8.3789 22.5278 8.4121 22.4019 8.4455 22.2761 8.5164 22.1848 8.6241 22.1292 8.7069 22.087 8.799 22.0742 8.8997 22.0912 9.0459 22.1159 9.2911 22.2256 9.6327 22.4229 9.9128 22.5836 10.1151 22.6874 10.2399 22.7347 10.3654 22.7812 10.4907 22.8027 10.6183 22.7971 10.7453 22.7917 10.8624 22.7619 10.9706 22.7064 11.1764 22.6009 11.3077 22.4376 11.3666 22.2171 11.4253 21.9957 11.3837 21.7709 11.2425 21.5436 11.1977 21.4713 11.1498 21.4078 11.0985 21.3508 11.0682 21.3165 10.9953 21.2516 10.8794 21.155 10.764 21.0589 10.696 20.9948 10.6761 20.9631 10.6574 20.9327 10.6529 20.9032 10.662 20.8757 10.6716 20.848 10.705 20.8137 10.7629 20.7723L10.7215 20.7054 9.7923 21.1822 9.8337 21.2491C10.0477 21.181 10.2203 21.1482 10.3496 21.1521 10.4797 21.1558 10.6109 21.1963 10.7425 21.2734 10.8746 21.3503 10.9814 21.454 11.0628 21.585 11.1569 21.7361 11.1872 21.8792 11.1538 22.0116 11.12 22.1451 11.0429 22.2426 10.9227 22.3041 10.8558 22.3384 10.7776 22.3566 10.6889 22.3586 10.6002 22.36 10.5046 22.3413 10.4017 22.3016 10.3323 22.2752 10.167 22.1893 9.906 22.0442 9.6454 21.8991 9.4482 21.8015 9.3158 21.7519 9.1831 21.702 9.0547 21.678 8.9334 21.6799 8.8112 21.6814 8.6939 21.7111 8.5816 21.7687 8.3877 21.8684 8.2619 22.0226 8.2057 22.2304 8.1496 22.4385 8.1873 22.648 8.3174 22.8574 8.3991 22.989 8.5209 23.1094 8.6825 23.2203 8.7582 23.2713 8.8044 23.3107 8.8217 23.3388 8.8413 23.3702 8.8472 23.4014 8.8393 23.432 8.8305 23.4626 8.7996 23.4995 8.7446 23.5443ZM12.9433 27.1817 13.6117 26.4339 13.5539 26.3971C13.2936 26.5822 13.0518 26.6814 12.8282 26.6922 12.6043 26.7038 12.3928 26.6451 12.1918 26.5161 12.024 26.4084 11.9018 26.2718 11.827 26.1065 11.7522 25.9418 11.7417 25.7494 11.7964 25.5283 11.8517 25.3083 11.9778 25.071 12.1751 24.8176 12.3378 24.6081 12.5155 24.4505 12.7086 24.3442 12.9013 24.2382 13.1034 24.1917 13.3146 24.2045 13.5261 24.2175 13.7259 24.2847 13.9147 24.406 14.0791 24.5115 14.1996 24.6368 14.2753 24.7813 14.3515 24.9259 14.3909 25.1422 14.3926 25.4293L14.478 25.4319C14.5103 25.145 14.4785 24.8995 14.3833 24.6954 14.2872 24.4919 14.1228 24.3147 13.89 24.1651 13.4697 23.8952 13.0334 23.8277 12.5819 23.9641 12.2451 24.065 11.965 24.2583 11.7425 24.5443 11.5631 24.7751 11.4548 25.024 11.418 25.2893 11.3808 25.5557 11.4205 25.8055 11.5362 26.0391 11.6524 26.2735 11.8278 26.4654 12.0637 26.6168 12.2468 26.7344 12.4586 26.8095 12.7009 26.8424 12.7723 26.8506 12.82 26.862 12.8424 26.8764 12.8755 26.8977 12.8965 26.9277 12.9044 26.9651 12.9132 27.017 12.9033 27.074 12.8744 27.1375ZM17.4291 26.2063 17.5065 26.2071 17.4334 25.4055 15.082 24.9163 15.0633 24.9911 15.1773 25.0149C15.3054 25.0415 15.3879 25.0982 15.4239 25.1855 15.444 25.2346 15.4344 25.338 15.395 25.494L14.9448 27.2801C14.9014 27.4521 14.8535 27.5556 14.8005 27.5896 14.7277 27.6372 14.6336 27.6491 14.5193 27.6253L14.4051 27.6015 14.3864 27.6763 15.7615 27.9624 15.7802 27.8875C15.6189 27.8555 15.5089 27.8189 15.4505 27.7767 15.3924 27.7353 15.3573 27.6902 15.3445 27.6426 15.3315 27.595 15.3451 27.4895 15.3859 27.328L15.8247 25.5878C15.853 25.4747 15.8845 25.4001 15.9191 25.363 15.9443 25.3372 15.9778 25.3225 16.0186 25.3165 16.0586 25.3108 16.177 25.3281 16.3732 25.3689L16.5949 25.4151C16.829 25.4636 16.9883 25.5129 17.0745 25.5637 17.1607 25.6144 17.2327 25.6878 17.2908 25.7831 17.3477 25.8786 17.3942 26.0195 17.4291 26.2063ZM20.0418 26.0495 18.8569 26.2621 18.5579 25.8636C18.4842 25.7655 18.4399 25.689 18.4286 25.636 18.4195 25.5943 18.4334 25.5523 18.4711 25.5124 18.508 25.473 18.5995 25.4347 18.7444 25.3987L18.7279 25.3233 17.7642 25.4965 17.7803 25.5716C17.9124 25.5691 18.0003 25.5807 18.0451 25.6068 18.1363 25.6589 18.2497 25.7769 18.3864 25.9608L19.9593 28.0536 20.0358 28.04 20.596 25.5385C20.641 25.3372 20.6921 25.2034 20.7502 25.1348 20.808 25.0671 20.8984 25.0189 21.022 24.9894L21.0056 24.914 19.8003 25.1306 19.8167 25.206C19.9392 25.1898 20.0256 25.1932 20.0755 25.217 20.1251 25.2408 20.1543 25.2754 20.1645 25.3208 20.1773 25.3806 20.1679 25.4809 20.1365 25.6215ZM20.0052 26.2125 19.7345 27.426 18.9615 26.4002ZM24.5305 26.1709 23.9295 25.3593 23.8595 25.4021C23.9522 25.5722 24.0026 25.7213 24.012 25.8494 24.0211 25.9778 23.9907 26.1026 23.9213 26.2242 23.8521 26.3452 23.7591 26.4416 23.6424 26.513 23.5094 26.5944 23.3734 26.6241 23.2325 26.604 23.0919 26.5833 22.9859 26.5263 22.9167 26.4331 22.864 26.3616 22.8427 26.2791 22.8538 26.1867 22.8691 26.0521 22.9703 25.8219 23.1602 25.4968 23.315 25.2306 23.4125 25.0393 23.455 24.9228 23.4961 24.8054 23.5103 24.69 23.4941 24.5752 23.478 24.4604 23.4363 24.3567 23.3666 24.2629 23.235 24.0851 23.0457 23.9788 22.7988 23.9426 22.5513 23.9068 22.3078 23.9621 22.0694 24.1078 21.9937 24.154 21.9274 24.2022 21.8693 24.2532 21.8339 24.2836 21.7684 24.3541 21.6714 24.467 21.5748 24.5792 21.5096 24.6455 21.4767 24.6657 21.4447 24.6852 21.4126 24.6917 21.382 24.6858 21.3508 24.6793 21.3103 24.6515 21.2607 24.6022L21.1904 24.645 21.7862 25.4492 21.8563 25.4064C21.765 25.2181 21.7154 25.0645 21.7097 24.9469 21.7035 24.8289 21.7375 24.7068 21.812 24.5818 21.886 24.4559 21.9915 24.351 22.1287 24.2671 22.2877 24.1702 22.4422 24.1313 22.5899 24.1517 22.7392 24.1719 22.8521 24.234 22.9292 24.338 22.972 24.3958 22.9978 24.465 23.0071 24.5452 23.0156 24.6257 23.0026 24.7136 22.9669 24.81 22.9433 24.8749 22.862 25.0313 22.7234 25.2791 22.5845 25.5263 22.4926 25.7122 22.4487 25.8364 22.4042 25.9605 22.3877 26.0785 22.3994 26.1884 22.4104 26.299 22.4524 26.4027 22.5241 26.4997 22.6485 26.6678 22.8277 26.7695 23.0601 26.8041 23.2931 26.839 23.5199 26.7883 23.7399 26.6539 23.8779 26.5697 24.0004 26.4501 24.1098 26.295 24.1597 26.2225 24.1994 26.1777 24.2286 26.1598 24.2617 26.1394 24.2957 26.1317 24.3298 26.1366 24.3641 26.1422 24.4069 26.1675 24.4604 26.2137ZM26.8954 23.8309 26.0487 23.2268 25.9965 23.2872C26.1425 23.423 26.2409 23.5505 26.293 23.6701 26.3452 23.7898 26.3585 23.9168 26.3336 24.0517 26.3089 24.1863 26.2534 24.304 26.166 24.4049 26.0671 24.5191 25.9481 24.5857 25.8072 24.6059 25.6663 24.6254 25.5464 24.6008 25.4489 24.5313 25.3743 24.478 25.3264 24.4057 25.3054 24.3147 25.2746 24.1824 25.293 23.9349 25.3636 23.5723 25.4203 23.2761 25.4486 23.0666 25.4494 22.9439 25.4489 22.8209 25.4231 22.7072 25.3689 22.6023 25.3148 22.4977 25.24 22.4107 25.1419 22.3407 24.9565 22.2083 24.7402 22.1601 24.4928 22.1944 24.2453 22.2299 24.0327 22.3503 23.855 22.5558 23.7986 22.6208 23.7521 22.6854 23.7138 22.7503 23.6903 22.7886 23.652 22.8745 23.5976 23.0088 23.5443 23.1423 23.5046 23.224 23.4799 23.2523 23.4561 23.2798 23.4281 23.2951 23.3966 23.298 23.3649 23.3002 23.3169 23.2852 23.2529 23.252L23.2007 23.3127 24.0398 23.9114 24.0922 23.851C23.9411 23.6974 23.8422 23.565 23.7971 23.4547 23.7512 23.3442 23.7421 23.2186 23.7708 23.0786 23.7986 22.9382 23.8635 22.809 23.9655 22.6908 24.0837 22.5541 24.2175 22.4742 24.3652 22.4521 24.514 22.4294 24.6427 22.4569 24.7513 22.5343 24.8114 22.5774 24.8596 22.6363 24.8956 22.7098 24.9307 22.784 24.9483 22.8713 24.9469 22.9728 24.9463 23.0414 24.9219 23.2129 24.874 23.4873 24.8255 23.7614 24.8012 23.9641 24.8012 24.0945 24.8012 24.2249 24.8255 24.342 24.8734 24.4431 24.9216 24.5452 24.9968 24.6325 25.098 24.7045 25.2734 24.8298 25.4784 24.8763 25.7111 24.8443 25.9441 24.8125 26.1431 24.7008 26.3069 24.5117 26.4095 24.3927 26.4861 24.2447 26.5371 24.0667 26.5603 23.9837 26.5827 23.9301 26.6046 23.9049 26.6292 23.8762 26.6587 23.8595 26.6927 23.8547 26.7276 23.8504 26.7769 23.862 26.8432 23.8912ZM27.7543 21.9328 26.6051 21.5303 26.852 20.9483C26.9161 20.7975 26.9836 20.7062 27.0547 20.6731 27.1494 20.6283 27.2803 20.6314 27.4493 20.6813L27.4796 20.6099 26.466 20.2547 26.4356 20.3264C26.5703 20.3941 26.6536 20.4446 26.6862 20.4769 26.7259 20.5174 26.7491 20.5699 26.7548 20.6331 26.761 20.696 26.7409 20.7828 26.6941 20.893L26.4472 21.475 25.4877 21.1391C25.359 21.094 25.2833 21.0614 25.2595 21.0416 25.2366 21.0212 25.2215 20.9954 25.2164 20.9636 25.2105 20.9319 25.2235 20.8794 25.2541 20.8069L25.4441 20.3598C25.507 20.2113 25.5651 20.107 25.6161 20.0472 25.6671 19.9882 25.7403 19.9389 25.8338 19.9006 25.9563 19.8513 26.1249 19.8159 26.3392 19.7938L26.373 19.7144 25.5481 19.6869 24.6841 21.7227 24.7632 21.7505 24.8029 21.6567C24.8292 21.5943 24.8715 21.541 24.9279 21.4968 24.9684 21.4628 25.0149 21.4464 25.0671 21.4481 25.1195 21.4486 25.2164 21.4741 25.3582 21.5237L27.2492 22.1859C27.4334 22.2506 27.5397 22.307 27.5675 22.3554 27.6046 22.4226 27.6001 22.5102 27.5536 22.6199L27.5139 22.7137 27.5927 22.7412 28.4567 20.7048 27.8283 20.4528 27.7963 20.5285C27.9388 20.6096 28.0324 20.6768 28.0757 20.73 28.1194 20.7833 28.1426 20.848 28.146 20.9234 28.1452 20.9826 28.1174 21.0779 28.0619 21.2088ZM28.9843 17.7545 27.9125 17.6649 27.9045 17.7415C28.1081 17.7834 28.2671 17.8421 28.3825 17.9167 28.4978 17.9915 28.5851 18.0916 28.6447 18.2171 28.7042 18.3424 28.728 18.4686 28.715 18.5964 28.7002 18.741 28.6398 18.8558 28.5335 18.942 28.4272 19.0281 28.3119 19.0667 28.1883 19.0565 28.0939 19.0485 28.0103 19.0114 27.9383 18.9451 27.8334 18.8493 27.7007 18.6324 27.5434 18.2934 27.4139 18.0164 27.3127 17.8265 27.2398 17.7231 27.1658 17.6199 27.0763 17.5371 26.968 17.4759 26.8605 17.4146 26.7452 17.3784 26.621 17.3682 26.3863 17.3483 26.1757 17.4146 25.9889 17.5654 25.8018 17.7171 25.6952 17.9235 25.6691 18.1834 25.6606 18.2659 25.6601 18.343 25.6666 18.4164 25.67 18.4601 25.689 18.5511 25.7236 18.6908 25.7584 18.8294 25.7743 18.9173 25.7703 18.9533 25.7669 18.9882 25.7522 19.0148 25.7275 19.0327 25.7023 19.0505 25.653 19.0613 25.5796 19.0653L25.5716 19.1418 26.6346 19.2305 26.6423 19.1543C26.4237 19.0993 26.2616 19.0372 26.1575 18.9669 26.0529 18.8966 25.9705 18.7957 25.9109 18.6639 25.85 18.5323 25.8273 18.392 25.8426 18.2424 25.8599 18.0692 25.9245 17.9359 26.0354 17.8447 26.1471 17.7523 26.2712 17.712 26.409 17.7236 26.4852 17.7299 26.5606 17.7557 26.6349 17.7996 26.7089 17.8447 26.7755 17.9093 26.835 17.9952 26.8756 18.053 26.9578 18.2089 27.0814 18.4632 27.2047 18.7172 27.3053 18.8994 27.3835 19.0089 27.4612 19.1186 27.5516 19.2047 27.6523 19.266 27.754 19.328 27.8688 19.364 27.9972 19.3748 28.2195 19.3935 28.419 19.3317 28.5956 19.1897 28.7722 19.048 28.8726 18.8563 28.8969 18.6165 28.9123 18.4663 28.8879 18.3042 28.8244 18.1295 28.794 18.0485 28.781 17.9921 28.7841 17.96 28.7878 17.924 28.8026 17.8954 28.8281 17.8744 28.8547 17.854 28.9035 17.8396 28.9763 17.8311Z" fill="#0c1139"/>
<path transform="matrix(1,0,0,-1,1,29.1716)" stroke-width=".216" stroke-linecap="butt" stroke-miterlimit="22.925585" stroke-linejoin="miter" fill="none" stroke="#28313c" d="M7.0106 19.3399 8.0836 19.2609 8.0768 19.1843C7.8684 19.1747 7.7006 19.1418 7.5728 19.0862 7.4449 19.0307 7.34 18.9456 7.2578 18.8311 7.1751 18.7172 7.128 18.5964 7.1167 18.4686 7.1036 18.3237 7.1416 18.2013 7.23 18.0998 7.3185 17.998 7.4251 17.9422 7.5484 17.9331 7.6431 17.9263 7.7323 17.9498 7.816 18.0037 7.9373 18.0816 8.1091 18.2747 8.3285 18.5842 8.5076 18.8368 8.6437 19.008 8.735 19.0984 8.8274 19.1889 8.9311 19.256 9.0496 19.2994 9.1675 19.3431 9.2877 19.3606 9.4119 19.3516 9.6469 19.3343 9.8416 19.2365 9.9972 19.0585 10.1526 18.8799 10.2186 18.6599 10.1957 18.3997 10.1883 18.3172 10.1741 18.2412 10.1537 18.1698 10.1421 18.1273 10.1061 18.0405 10.0454 17.9084 9.985 17.7775 9.9533 17.6933 9.9499 17.657 9.9465 17.6224 9.9561 17.5938 9.9768 17.5723 9.9986 17.5507 10.0449 17.5323 10.1166 17.517L10.1098 17.4404 9.0459 17.519 9.053 17.5955C9.2786 17.6153 9.4501 17.6513 9.5658 17.7041 9.6823 17.7571 9.7829 17.8438 9.8666 17.964 9.951 18.0842 10.0001 18.2191 10.0134 18.3688 10.0287 18.542 9.9904 18.6834 9.8986 18.7909 9.8062 18.8991 9.6911 18.9581 9.5539 18.9683 9.4774 18.974 9.398 18.9604 9.3166 18.9286 9.2353 18.896 9.157 18.8425 9.0822 18.7673 9.0315 18.7166 8.9209 18.5757 8.7511 18.3447 8.5816 18.1137 8.4478 17.9498 8.3506 17.8543 8.2528 17.7585 8.1476 17.6876 8.0365 17.6428 7.9248 17.5978 7.8046 17.5802 7.6765 17.5895 7.4543 17.606 7.2689 17.6981 7.122 17.8654 6.9746 18.0326 6.9123 18.237 6.9335 18.4771 6.9469 18.6276 7.0016 18.7832 7.0974 18.9456 7.1425 19.0208 7.166 19.074 7.1688 19.1061 7.1719 19.1424 7.1629 19.1727 7.1416 19.1974 7.1195 19.2217 7.0741 19.2436 7.0036 19.2631ZM8.786 23.6112 9.7234 23.1304 9.682 23.0635C9.4881 23.1341 9.3206 23.1684 9.1794 23.1667 9.0377 23.1647 8.9031 23.1276 8.7752 23.0553 8.6479 22.9833 8.5493 22.8915 8.4796 22.7801 8.401 22.6534 8.3789 22.5278 8.4121 22.4019 8.4455 22.2761 8.5164 22.1848 8.6241 22.1292 8.7069 22.087 8.799 22.0742 8.8997 22.0912 9.0459 22.1159 9.2911 22.2256 9.6327 22.4229 9.9128 22.5836 10.1151 22.6874 10.2399 22.7347 10.3654 22.7812 10.4907 22.8027 10.6183 22.7971 10.7453 22.7917 10.8624 22.7619 10.9706 22.7064 11.1764 22.6009 11.3077 22.4376 11.3666 22.2171 11.4253 21.9957 11.3837 21.7709 11.2425 21.5436 11.1977 21.4713 11.1498 21.4078 11.0985 21.3508 11.0682 21.3165 10.9953 21.2516 10.8794 21.155 10.764 21.0589 10.696 20.9948 10.6761 20.9631 10.6574 20.9327 10.6529 20.9032 10.662 20.8757 10.6716 20.848 10.705 20.8137 10.7629 20.7723L10.7215 20.7054 9.7923 21.1822 9.8337 21.2491C10.0477 21.181 10.2203 21.1482 10.3496 21.1521 10.4797 21.1558 10.6109 21.1963 10.7425 21.2734 10.8746 21.3503 10.9814 21.454 11.0628 21.585 11.1569 21.7361 11.1872 21.8792 11.1538 22.0116 11.12 22.1451 11.0429 22.2426 10.9227 22.3041 10.8558 22.3384 10.7776 22.3566 10.6889 22.3586 10.6002 22.36 10.5046 22.3413 10.4017 22.3016 10.3323 22.2752 10.167 22.1893 9.906 22.0442 9.6454 21.8991 9.4482 21.8015 9.3158 21.7519 9.1831 21.702 9.0547 21.678 8.9334 21.6799 8.8112 21.6814 8.6939 21.7111 8.5816 21.7687 8.3877 21.8684 8.2619 22.0226 8.2057 22.2304 8.1496 22.4385 8.1873 22.648 8.3174 22.8574 8.3991 22.989 8.5209 23.1094 8.6825 23.2203 8.7582 23.2713 8.8044 23.3107 8.8217 23.3388 8.8413 23.3702 8.8472 23.4014 8.8393 23.432 8.8305 23.4626 8.7996 23.4995 8.7446 23.5443ZM12.9433 27.1817 13.6117 26.4339 13.5539 26.3971C13.2936 26.5822 13.0518 26.6814 12.8282 26.6922 12.6043 26.7038 12.3928 26.6451 12.1918 26.5161 12.024 26.4084 11.9018 26.2718 11.827 26.1065 11.7522 25.9418 11.7417 25.7494 11.7964 25.5283 11.8517 25.3083 11.9778 25.071 12.1751 24.8176 12.3378 24.6081 12.5155 24.4505 12.7086 24.3442 12.9013 24.2382 13.1034 24.1917 13.3146 24.2045 13.5261 24.2175 13.7259 24.2847 13.9147 24.406 14.0791 24.5115 14.1996 24.6368 14.2753 24.7813 14.3515 24.9259 14.3909 25.1422 14.3926 25.4293L14.478 25.4319C14.5103 25.145 14.4785 24.8995 14.3833 24.6954 14.2872 24.4919 14.1228 24.3147 13.89 24.1651 13.4697 23.8952 13.0334 23.8277 12.5819 23.9641 12.2451 24.065 11.965 24.2583 11.7425 24.5443 11.5631 24.7751 11.4548 25.024 11.418 25.2893 11.3808 25.5557 11.4205 25.8055 11.5362 26.0391 11.6524 26.2735 11.8278 26.4654 12.0637 26.6168 12.2468 26.7344 12.4586 26.8095 12.7009 26.8424 12.7723 26.8506 12.82 26.862 12.8424 26.8764 12.8755 26.8977 12.8965 26.9277 12.9044 26.9651 12.9132 27.017 12.9033 27.074 12.8744 27.1375ZM17.4291 26.2063 17.5065 26.2071 17.4334 25.4055 15.082 24.9163 15.0633 24.9911 15.1773 25.0149C15.3054 25.0415 15.3879 25.0982 15.4239 25.1855 15.444 25.2346 15.4344 25.338 15.395 25.494L14.9448 27.2801C14.9014 27.4521 14.8535 27.5556 14.8005 27.5896 14.7277 27.6372 14.6336 27.6491 14.5193 27.6253L14.4051 27.6015 14.3864 27.6763 15.7615 27.9624 15.7802 27.8875C15.6189 27.8555 15.5089 27.8189 15.4505 27.7767 15.3924 27.7353 15.3573 27.6902 15.3445 27.6426 15.3315 27.595 15.3451 27.4895 15.3859 27.328L15.8247 25.5878C15.853 25.4747 15.8845 25.4001 15.9191 25.363 15.9443 25.3372 15.9778 25.3225 16.0186 25.3165 16.0586 25.3108 16.177 25.3281 16.3732 25.3689L16.5949 25.4151C16.829 25.4636 16.9883 25.5129 17.0745 25.5637 17.1607 25.6144 17.2327 25.6878 17.2908 25.7831 17.3477 25.8786 17.3942 26.0195 17.4291 26.2063ZM20.0418 26.0495 18.8569 26.2621 18.5579 25.8636C18.4842 25.7655 18.4399 25.689 18.4286 25.636 18.4195 25.5943 18.4334 25.5523 18.4711 25.5124 18.508 25.473 18.5995 25.4347 18.7444 25.3987L18.7279 25.3233 17.7642 25.4965 17.7803 25.5716C17.9124 25.5691 18.0003 25.5807 18.0451 25.6068 18.1363 25.6589 18.2497 25.7769 18.3864 25.9608L19.9593 28.0536 20.0358 28.04 20.596 25.5385C20.641 25.3372 20.6921 25.2034 20.7502 25.1348 20.808 25.0671 20.8984 25.0189 21.022 24.9894L21.0056 24.914 19.8003 25.1306 19.8167 25.206C19.9392 25.1898 20.0256 25.1932 20.0755 25.217 20.1251 25.2408 20.1543 25.2754 20.1645 25.3208 20.1773 25.3806 20.1679 25.4809 20.1365 25.6215ZM20.0052 26.2125 19.7345 27.426 18.9615 26.4002ZM24.5305 26.1709 23.9295 25.3593 23.8595 25.4021C23.9522 25.5722 24.0026 25.7213 24.012 25.8494 24.0211 25.9778 23.9907 26.1026 23.9213 26.2242 23.8521 26.3452 23.7591 26.4416 23.6424 26.513 23.5094 26.5944 23.3734 26.6241 23.2325 26.604 23.0919 26.5833 22.9859 26.5263 22.9167 26.4331 22.864 26.3616 22.8427 26.2791 22.8538 26.1867 22.8691 26.0521 22.9703 25.8219 23.1602 25.4968 23.315 25.2306 23.4125 25.0393 23.455 24.9228 23.4961 24.8054 23.5103 24.69 23.4941 24.5752 23.478 24.4604 23.4363 24.3567 23.3666 24.2629 23.235 24.0851 23.0457 23.9788 22.7988 23.9426 22.5513 23.9068 22.3078 23.9621 22.0694 24.1078 21.9937 24.154 21.9274 24.2022 21.8693 24.2532 21.8339 24.2836 21.7684 24.3541 21.6714 24.467 21.5748 24.5792 21.5096 24.6455 21.4767 24.6657 21.4447 24.6852 21.4126 24.6917 21.382 24.6858 21.3508 24.6793 21.3103 24.6515 21.2607 24.6022L21.1904 24.645 21.7862 25.4492 21.8563 25.4064C21.765 25.2181 21.7154 25.0645 21.7097 24.9469 21.7035 24.8289 21.7375 24.7068 21.812 24.5818 21.886 24.4559 21.9915 24.351 22.1287 24.2671 22.2877 24.1702 22.4422 24.1313 22.5899 24.1517 22.7392 24.1719 22.8521 24.234 22.9292 24.338 22.972 24.3958 22.9978 24.465 23.0071 24.5452 23.0156 24.6257 23.0026 24.7136 22.9669 24.81 22.9433 24.8749 22.862 25.0313 22.7234 25.2791 22.5845 25.5263 22.4926 25.7122 22.4487 25.8364 22.4042 25.9605 22.3877 26.0785 22.3994 26.1884 22.4104 26.299 22.4524 26.4027 22.5241 26.4997 22.6485 26.6678 22.8277 26.7695 23.0601 26.8041 23.2931 26.839 23.5199 26.7883 23.7399 26.6539 23.8779 26.5697 24.0004 26.4501 24.1098 26.295 24.1597 26.2225 24.1994 26.1777 24.2286 26.1598 24.2617 26.1394 24.2957 26.1317 24.3298 26.1366 24.3641 26.1422 24.4069 26.1675 24.4604 26.2137ZM26.8954 23.8309 26.0487 23.2268 25.9965 23.2872C26.1425 23.423 26.2409 23.5505 26.293 23.6701 26.3452 23.7898 26.3585 23.9168 26.3336 24.0517 26.3089 24.1863 26.2534 24.304 26.166 24.4049 26.0671 24.5191 25.9481 24.5857 25.8072 24.6059 25.6663 24.6254 25.5464 24.6008 25.4489 24.5313 25.3743 24.478 25.3264 24.4057 25.3054 24.3147 25.2746 24.1824 25.293 23.9349 25.3636 23.5723 25.4203 23.2761 25.4486 23.0666 25.4494 22.9439 25.4489 22.8209 25.4231 22.7072 25.3689 22.6023 25.3148 22.4977 25.24 22.4107 25.1419 22.3407 24.9565 22.2083 24.7402 22.1601 24.4928 22.1944 24.2453 22.2299 24.0327 22.3503 23.855 22.5558 23.7986 22.6208 23.7521 22.6854 23.7138 22.7503 23.6903 22.7886 23.652 22.8745 23.5976 23.0088 23.5443 23.1423 23.5046 23.224 23.4799 23.2523 23.4561 23.2798 23.4281 23.2951 23.3966 23.298 23.3649 23.3002 23.3169 23.2852 23.2529 23.252L23.2007 23.3127 24.0398 23.9114 24.0922 23.851C23.9411 23.6974 23.8422 23.565 23.7971 23.4547 23.7512 23.3442 23.7421 23.2186 23.7708 23.0786 23.7986 22.9382 23.8635 22.809 23.9655 22.6908 24.0837 22.5541 24.2175 22.4742 24.3652 22.4521 24.514 22.4294 24.6427 22.4569 24.7513 22.5343 24.8114 22.5774 24.8596 22.6363 24.8956 22.7098 24.9307 22.784 24.9483 22.8713 24.9469 22.9728 24.9463 23.0414 24.9219 23.2129 24.874 23.4873 24.8255 23.7614 24.8012 23.9641 24.8012 24.0945 24.8012 24.2249 24.8255 24.342 24.8734 24.4431 24.9216 24.5452 24.9968 24.6325 25.098 24.7045 25.2734 24.8298 25.4784 24.8763 25.7111 24.8443 25.9441 24.8125 26.1431 24.7008 26.3069 24.5117 26.4095 24.3927 26.4861 24.2447 26.5371 24.0667 26.5603 23.9837 26.5827 23.9301 26.6046 23.9049 26.6292 23.8762 26.6587 23.8595 26.6927 23.8547 26.7276 23.8504 26.7769 23.862 26.8432 23.8912ZM27.7543 21.9328 26.6051 21.5303 26.852 20.9483C26.9161 20.7975 26.9836 20.7062 27.0547 20.6731 27.1494 20.6283 27.2803 20.6314 27.4493 20.6813L27.4796 20.6099 26.466 20.2547 26.4356 20.3264C26.5703 20.3941 26.6536 20.4446 26.6862 20.4769 26.7259 20.5174 26.7491 20.5699 26.7548 20.6331 26.761 20.696 26.7409 20.7828 26.6941 20.893L26.4472 21.475 25.4877 21.1391C25.359 21.094 25.2833 21.0614 25.2595 21.0416 25.2366 21.0212 25.2215 20.9954 25.2164 20.9636 25.2105 20.9319 25.2235 20.8794 25.2541 20.8069L25.4441 20.3598C25.507 20.2113 25.5651 20.107 25.6161 20.0472 25.6671 19.9882 25.7403 19.9389 25.8338 19.9006 25.9563 19.8513 26.1249 19.8159 26.3392 19.7938L26.373 19.7144 25.5481 19.6869 24.6841 21.7227 24.7632 21.7505 24.8029 21.6567C24.8292 21.5943 24.8715 21.541 24.9279 21.4968 24.9684 21.4628 25.0149 21.4464 25.0671 21.4481 25.1195 21.4486 25.2164 21.4741 25.3582 21.5237L27.2492 22.1859C27.4334 22.2506 27.5397 22.307 27.5675 22.3554 27.6046 22.4226 27.6001 22.5102 27.5536 22.6199L27.5139 22.7137 27.5927 22.7412 28.4567 20.7048 27.8283 20.4528 27.7963 20.5285C27.9388 20.6096 28.0324 20.6768 28.0757 20.73 28.1194 20.7833 28.1426 20.848 28.146 20.9234 28.1452 20.9826 28.1174 21.0779 28.0619 21.2088ZM28.9843 17.7545 27.9125 17.6649 27.9045 17.7415C28.1081 17.7834 28.2671 17.8421 28.3825 17.9167 28.4978 17.9915 28.5851 18.0916 28.6447 18.2171 28.7042 18.3424 28.728 18.4686 28.715 18.5964 28.7002 18.741 28.6398 18.8558 28.5335 18.942 28.4272 19.0281 28.3119 19.0667 28.1883 19.0565 28.0939 19.0485 28.0103 19.0114 27.9383 18.9451 27.8334 18.8493 27.7007 18.6324 27.5434 18.2934 27.4139 18.0164 27.3127 17.8265 27.2398 17.7231 27.1658 17.6199 27.0763 17.5371 26.968 17.4759 26.8605 17.4146 26.7452 17.3784 26.621 17.3682 26.3863 17.3483 26.1757 17.4146 25.9889 17.5654 25.8018 17.7171 25.6952 17.9235 25.6691 18.1834 25.6606 18.2659 25.6601 18.343 25.6666 18.4164 25.67 18.4601 25.689 18.5511 25.7236 18.6908 25.7584 18.8294 25.7743 18.9173 25.7703 18.9533 25.7669 18.9882 25.7522 19.0148 25.7275 19.0327 25.7023 19.0505 25.653 19.0613 25.5796 19.0653L25.5716 19.1418 26.6346 19.2305 26.6423 19.1543C26.4237 19.0993 26.2616 19.0372 26.1575 18.9669 26.0529 18.8966 25.9705 18.7957 25.9109 18.6639 25.85 18.5323 25.8273 18.392 25.8426 18.2424 25.8599 18.0692 25.9245 17.9359 26.0354 17.8447 26.1471 17.7523 26.2712 17.712 26.409 17.7236 26.4852 17.7299 26.5606 17.7557 26.6349 17.7996 26.7089 17.8447 26.7755 17.9093 26.835 17.9952 26.8756 18.053 26.9578 18.2089 27.0814 18.4632 27.2047 18.7172 27.3053 18.8994 27.3835 19.0089 27.4612 19.1186 27.5516 19.2047 27.6523 19.266 27.754 19.328 27.8688 19.364 27.9972 19.3748 28.2195 19.3935 28.419 19.3317 28.5956 19.1897 28.7722 19.048 28.8726 18.8563 28.8969 18.6165 28.9123 18.4663 28.8879 18.3042 28.8244 18.1295 28.794 18.0485 28.781 17.9921 28.7841 17.96 28.7878 17.924 28.8026 17.8954 28.8281 17.8744 28.8547 17.854 28.9035 17.8396 28.9763 17.8311Z"/>
</g>
</svg>
